<?xml version="1.0" standalone="no"?>
<!DOCTYPE svg PUBLIC "-//W3C//DTD SVG 20010904//EN"
 "http://www.w3.org/TR/2001/REC-SVG-20010904/DTD/svg10.dtd">
<svg version="1.0" xmlns="http://www.w3.org/2000/svg"
 width="500.000000pt" height="500.000000pt" viewBox="0 0 500.000000 500.000000"
 preserveAspectRatio="xMidYMid meet">
<metadata>
Created by potrace 1.14, written by Peter Selinger 2001-2017
</metadata>
<g transform="translate(0.000000,500.000000) scale(0.100000,-0.100000)"
fill="#000000" stroke="none">
<path d="M1682 3837 c-22 -23 -22 -25 -22 -465 0 -429 1 -443 20 -462 27 -27
66 -25 95 5 l25 24 0 436 0 436 -25 24 c-30 31 -65 32 -93 2z"/>
<path d="M2593 3848 c-43 -21 -41 -107 3 -127 34 -15 65 -14 92 5 17 12 22 25
22 59 0 34 -5 47 -22 59 -25 18 -63 20 -95 4z"/>
<path d="M2259 3602 c-31 -16 -68 -46 -86 -71 l-33 -43 0 40 c0 73 -62 110
-110 67 -19 -17 -20 -33 -20 -346 0 -327 0 -328 22 -343 28 -20 58 -20 84 -2
18 13 19 31 24 238 6 251 12 275 86 336 45 37 74 43 142 29 51 -11 55 -10 73
12 26 31 24 57 -6 86 -35 36 -105 34 -176 -3z"/>
<path d="M3040 3621 c-128 -42 -195 -153 -159 -262 23 -69 94 -120 214 -153
143 -40 185 -69 185 -126 0 -68 -89 -112 -184 -90 -62 14 -81 24 -133 71 -48
44 -74 48 -103 19 -31 -31 -25 -61 23 -107 63 -62 124 -86 235 -91 88 -4 96
-3 158 28 108 53 150 150 109 256 -27 71 -81 104 -252 154 -40 11 -86 32 -103
47 -27 22 -31 31 -28 66 4 51 38 78 106 85 61 5 113 -11 158 -50 84 -74 160 4
82 83 -50 49 -111 72 -203 75 -44 2 -91 0 -105 -5z"/>
<path d="M2604 3612 c-31 -20 -34 -55 -34 -360 0 -298 1 -310 21 -336 25 -32
68 -35 95 -5 18 20 19 43 22 338 3 310 2 318 -18 344 -21 27 -62 36 -86 19z"/>
<path d="M895 2625 l-25 -24 0 -434 c0 -424 0 -435 21 -461 l20 -26 258 0
c289 0 301 3 301 65 0 61 -16 65 -252 65 l-208 0 0 399 0 400 -26 20 c-35 27
-59 26 -89 -4z"/>
<path d="M3900 2560 c-16 -16 -20 -33 -20 -90 l0 -70 -50 0 c-57 0 -90 -24
-90 -63 0 -38 30 -57 88 -57 l52 0 0 -237 c0 -212 3 -243 19 -280 28 -61 61
-78 147 -78 63 0 76 3 98 24 28 26 34 59 14 79 -7 7 -36 12 -65 12 -83 0 -84
4 -81 261 l3 214 70 3 c76 3 105 19 105 58 0 40 -44 64 -116 64 l-64 0 0 70
c0 78 -19 110 -65 110 -14 0 -34 -9 -45 -20z"/>
<path d="M1813 2400 c-65 -23 -100 -48 -152 -106 -61 -70 -85 -140 -85 -254
-1 -86 2 -101 30 -160 38 -79 97 -140 172 -177 51 -25 67 -28 162 -28 101 0
108 1 168 34 117 64 183 169 190 306 12 235 -143 406 -367 405 -39 -1 -88 -9
-118 -20z m223 -123 c101 -52 154 -182 124 -305 -33 -141 -188 -221 -315 -163
-50 23 -109 86 -126 137 -21 64 -17 162 10 217 25 53 81 104 132 124 42 16
136 10 175 -10z"/>
<path d="M2715 2396 c-49 -23 -91 -61 -113 -101 -10 -17 -11 -15 -12 20 0 56
-23 85 -65 85 -66 0 -65 5 -65 -359 0 -305 1 -329 18 -344 28 -25 67 -21 91 9
20 25 21 40 21 228 1 214 7 249 51 304 48 59 93 73 184 57 52 -9 78 10 78 55
0 70 -90 92 -188 46z"/>
<path d="M3203 2400 c-235 -94 -299 -458 -111 -637 62 -59 132 -86 234 -91
105 -5 167 11 233 58 57 42 77 74 63 105 -19 42 -53 41 -122 -1 -159 -98 -348
-28 -385 144 l-7 32 254 0 c308 0 303 -2 295 96 -9 117 -83 226 -192 282 -70
36 -188 41 -262 12z m202 -120 c22 -10 47 -25 56 -32 26 -21 59 -81 59 -105
l0 -23 -200 0 c-221 0 -216 -2 -185 65 47 97 173 142 270 95z"/>
</g>
</svg>
